<?xml version="1.0" standalone="yes"?>
<svg xmlns="http://www.w3.org/2000/svg" width="600" height="197">
<path style="fill:#ffffff; stroke:none;" d="M0 0L0 197L600 197L600 0L0 0z"/>
<path style="fill:#564141; stroke:none;" d="M62 60L63 61L62 60z"/>
<path style="fill:#2e1414; stroke:none;" d="M62.8627 60.858C57.7921 63.365 60 75.3152 60 80L60 119C60 123.791 58.5682 131.393 60.6034 135.812C62.0896 139.04 70.8549 139.128 73.6821 137.687C77.7528 135.611 76 125.764 76 122L76 87C76 83.3491 74.7238 76.5611 77.6034 73.7423C85.7983 65.7202 99.9042 77.5477 99.2099 86.7145C98.4554 96.6751 86.2275 95.3293 84.0023 103.044C79.8823 117.328 104.843 107.486 108.957 103.787C119.722 94.1049 119.664 74.4946 107.985 65.5571C98.8109 58.5374 86.8155 60 76 60C72.1039 60 66.4697 59.0746 62.8627 60.858z"/>
<path style="fill:#564141; stroke:none;" d="M64 60L65 61L64 60M96 60L97 61L96 60z"/>
<path style="fill:#2e1414; stroke:none;" d="M338 87C338 80.7563 340.505 67.6115 336.972 62.3179C334.726 58.9522 323.289 58.4416 321.313 62.3179C319.515 65.8449 321 73.0635 321 77L321 115C321 120.524 317.951 136.688 325.023 137.852C343.975 140.972 337.416 118.317 338.04 106C338.34 100.08 342.83 92.1565 349.995 94.6188C363.253 99.1748 354.579 123.969 357.318 133.941C358.722 139.054 369.975 139.819 373.397 136.397C377.138 132.655 375 120.932 375 116C375 107.63 376.235 97.7813 372.431 90C365.218 75.2438 348.176 77.3529 338 87z"/>
<path style="fill:#564141; stroke:none;" d="M102 62L103 63L102 62M320 63L321 64L320 63z"/>
<path style="fill:#7a6b6b; stroke:none;" d="M106 64L107 65L106 64M320 64L320 134L321 134L321 86L320 64z"/>
<path style="fill:#564141; stroke:none;" d="M78 72L79 73L78 72z"/>
<path style="fill:#7a6b6b; stroke:none;" d="M79 72L80 73L79 72z"/>
<path style="fill:#564141; stroke:none;" d="M88 72L89 73L88 72z"/>
<path style="fill:#7a6b6b; stroke:none;" d="M114 73L115 74L114 73z"/>
<path style="fill:#a69a9a; stroke:none;" d="M76 74L76 78L77 78L76 74z"/>
<path style="fill:#7a6b6b; stroke:none;" d="M76 78L76 136L77 136L77 97L76 78z"/>
<path style="fill:#2e1414; stroke:none;" d="M150 132C152.727 136.968 163.563 142.009 166.307 133.891C167.429 130.573 166.006 125.522 166 122C165.982 110.543 168.759 94.501 160.61 85.1049C153.525 76.9369 139.652 76.7361 129.83 78.7492C126.327 79.4672 120.113 80.5602 119.778 85.054C119.549 88.1283 121.963 91.0785 125.019 91.3573C131.314 91.9315 137.82 87.1403 144.046 90.9738C151.906 95.8135 151.835 119.033 144.894 124.57C139.598 128.795 129.765 125.995 131.478 118.004C132.668 112.448 138.281 112.405 141.242 108.582C142.686 106.718 142.717 104.186 141.242 102.319C134.024 93.1786 115.825 109.276 114.695 117C111.262 140.47 135.59 141.803 150 132z"/>
<path style="fill:#564141; stroke:none;" d="M132 78L133 79L132 78M148 78L149 79L148 78M187 78L188 79L187 78z"/>
<path style="fill:#2e1414; stroke:none;" d="M171 135C185.721 142.718 223.054 137.24 211.427 113.001C207.487 104.785 188.718 102.938 187.975 94.8958C186.936 83.6461 213.12 97.4372 209.211 83.1073C207.826 78.0269 200.128 78.0643 195.985 78.0108C185.166 77.871 171.824 82.4103 171.103 95.1698C170.529 105.303 178.543 110.582 187 113.939C190.459 115.312 197.423 117.805 195.593 122.892C192.167 132.411 179.003 122.396 173.434 126.042C170.626 127.881 171.221 132.106 171 135z"/>
<path style="fill:#564141; stroke:none;" d="M201 78L202 79L201 78z"/>
<path style="fill:#2e1414; stroke:none;" d="M254 102C250.463 102 229.424 104.684 240.318 111.972C244.993 115.1 260.507 113.856 265.941 112.772C270.965 111.769 270.16 106.176 269.844 102.17C269.08 92.4896 263.289 83.0492 254.015 79.5046C221.586 67.1104 199.071 117.708 228 134.471C234.579 138.283 265.027 143.691 265.677 131.166C266.158 121.907 251.335 126.65 245.985 126.056C231.636 124.464 225.867 106.479 233.703 95.0154C241.24 83.9895 253.009 90.7337 254 102z"/>
<path style="fill:#564141; stroke:none;" d="M238 78L239 79L238 78z"/>
<path style="fill:#7a6b6b; stroke:none;" d="M241 78L241 79L247 79L241 78z"/>
<path style="fill:#564141; stroke:none;" d="M247 78L248 79L247 78M249 78L250 79L249 78M289 78L290 79L289 78z"/>
<path style="fill:#2e1414; stroke:none;" d="M290 78.4676C286.795 79.0732 283.724 80.2835 281.015 82.1088C268.85 90.3076 271.978 105.565 284 111.726C288.123 113.839 297.855 115.502 297.855 121.564C297.855 132.414 278.992 122.691 274.664 126.603C270.789 130.104 272.842 135.064 277.045 136.856C283.285 139.517 291.486 139.408 298.039 138.167C312.246 135.477 322 118.277 308.956 107.39C304.293 103.499 291.667 101.847 290.238 95.2824C289.619 92.441 292.343 90.659 294.733 90.064C299.051 88.9891 304.745 92.2739 308.57 89.8063C318.281 83.5428 304.074 78.1527 298.961 78.0255C295.981 77.9513 292.94 77.912 290 78.4676z"/>
<path style="fill:#564141; stroke:none;" d="M303 78L304 79L303 78z"/>
<path style="fill:#2e1414; stroke:none;" d="M403.83 78.5988C365.417 86.3349 377.024 145.833 416 138.532C455.031 131.221 443.494 70.6109 403.83 78.5988z"/>
<path style="fill:#564141; stroke:none;" d="M406 78L407 79L406 78M410.667 78.3333L411.333 78.6667L410.667 78.3333M415 78L416 79L415 78z"/>
<path style="fill:#a69a9a; stroke:none;" d="M444 78L445 79L444 78M479 78L480 79L479 78M515 78L516 79L515 78M523 78L524 79L523 78M152 79L153 80L152 79z"/>
<path style="fill:#7a6b6b; stroke:none;" d="M206 79L207 80L206 79z"/>
<path style="fill:#564141; stroke:none;" d="M308 79L309 80L308 79M350 79L351 80L350 79M359 79L360 80L359 79M400 79L401 80L400 79z"/>
<path style="fill:#2e1414; stroke:none;" d="M484 101C485.444 109.768 488.215 118.379 490.373 127C491.168 130.175 491.64 134.952 494.569 136.972C497.925 139.286 508.486 139.003 511.066 135.682C514.194 131.654 515.053 124.81 516.427 120C519.407 109.572 527.611 94.8818 526.758 84.0193C526.28 77.9298 515.296 76.981 512.14 81.3179C506.473 89.1034 503.778 108.469 503 118L501 118C500.251 108.584 497.31 99.0967 494.849 90C494.018 86.9295 493.411 81.9504 490.57 80.0278C486.94 77.5708 478.656 78.3961 476.278 82.1481C470.71 90.9309 467.47 108.724 467 119C462.424 110.747 461.859 100.052 459.29 91C458.342 87.66 457.862 82.072 454.697 80.0278C450.167 77.102 440.089 78.2496 440.778 85.0046C441.974 96.7444 447.553 109.709 451.025 121C452.408 125.498 453.162 131.908 456.086 135.682C464.771 146.894 475.572 132.712 477.525 125C479.523 117.113 480.823 108.48 484 101z"/>
<path style="fill:#564141; stroke:none;" d="M455 79L456 80L455 79M477 79L478 80L477 79M525 79L526 80L525 79z"/>
<path style="fill:#a69a9a; stroke:none;" d="M123 80L124 81L123 80z"/>
<path style="fill:#564141; stroke:none;" d="M154 80L155 81L154 80M181 80L182 81L181 80M231 80L232 81L231 80z"/>
<path style="fill:#7a6b6b; stroke:none;" d="M283 80L284 81L283 80z"/>
<path style="fill:#564141; stroke:none;" d="M397 80L398 81L397 80M476 80L477 81L476 80M526 80L527 81L526 80M116 81L117 82L116 81z"/>
<path style="fill:#a69a9a; stroke:none;" d="M156 81L157 82L156 81z"/>
<path style="fill:#7a6b6b; stroke:none;" d="M229 81L230 82L229 81z"/>
<path style="fill:#a69a9a; stroke:none;" d="M440 81L441 82L440 81z"/>
<path style="fill:#564141; stroke:none;" d="M492 81L493 82L492 81M178 82L179 83L178 82M259 82L260 83L259 82M280 82L281 83L280 82M311 82L312 83L311 82M393 82L394 83L393 82M427 82L428 83L427 82M119 83L120 84L119 83z"/>
<path style="fill:#7a6b6b; stroke:none;" d="M226 83L227 84L226 83M367 83L368 84L367 83z"/>
<path style="fill:#564141; stroke:none;" d="M475 83L476 84L475 83M311 84L312 85L311 84M368 84L369 85L368 84z"/>
<path style="fill:#a69a9a; stroke:none;" d="M390 84L391 85L390 84z"/>
<path style="fill:#564141; stroke:none;" d="M440 84L441 85L440 84M457 84L458 85L457 84M224 85L225 86L224 85z"/>
<path style="fill:#a69a9a; stroke:none;" d="M369 85L370 86L369 85z"/>
<path style="fill:#564141; stroke:none;" d="M493 85L494 86L493 85z"/>
<path style="fill:#7a6b6b; stroke:none;" d="M510 85L511 86L510 85z"/>
<path style="fill:#564141; stroke:none;" d="M119 86L120 87L119 86M263 86L264 87L263 86z"/>
<path style="fill:#a69a9a; stroke:none;" d="M432 86L433 87L432 86z"/>
<path style="fill:#564141; stroke:none;" d="M99 87L100 88L99 87M116 87L117 88L116 87M173 87L174 88L173 87M264 87L265 88L264 87M208 88L209 89L208 88z"/>
<path style="fill:#7a6b6b; stroke:none;" d="M221 88L222 89L221 88z"/>
<path style="fill:#564141; stroke:none;" d="M310 88L311 89L310 88M386 88L387 89L386 88M458 88L459 89L458 88M494 88L495 89L494 88M120 89L121 90L120 89M133.667 89.3333L134.333 89.6667L133.667 89.3333M140 89L141 90L140 89M163 89L164 90L163 89M172 89L173 90L172 89M193 89L194 90L193 89M196.667 89.3333L197.333 89.6667L196.667 89.3333M239 89L240 90L239 89M274 89L275 90L274 89M295 89L296 90L295 89M298.667 89.3333L299.333 89.6667L298.667 89.3333M509 89L510 90L509 89M121 90L122 91L121 90M144 90L145 91L144 90M206 90L207 91L206 90M308 90L309 91L308 90z"/>
<path style="fill:#a69a9a; stroke:none;" d="M525 90L526 91L525 90z"/>
<path style="fill:#564141; stroke:none;" d="M122 91L123 92L122 91M188 91L189 92L188 91M219 91L220 92L219 91M250 91L251 92L250 91M290 91L291 92L290 91M407 91L408 92L407 91z"/>
<path style="fill:#7a6b6b; stroke:none;" d="M408 91L409 92L408 91z"/>
<path style="fill:#ffffff; stroke:none;" d="M409.001 91.5772C394.373 93.5051 395.217 126.712 411 125.471C425.939 124.295 424.88 89.4843 409.001 91.5772z"/>
<path style="fill:#564141; stroke:none;" d="M412 91L413 92L412 91M442 91L443 92L442 91M171 92L172 93L171 92M251 92L252 93L251 92M273 92L274 93L273 92M495 92L496 93L495 92M115 93L116 94L115 93M187 93L188 94L187 93M218 93L219 94L218 93M403 93L404 94L403 93M416 93L417 94L416 93M508 93L509 94L508 93z"/>
<path style="fill:#7a6b6b; stroke:none;" d="M233 94L234 95L233 94z"/>
<path style="fill:#564141; stroke:none;" d="M252 94L253 95L252 94M289 94L290 95L289 94M351 94L352 95L351 94M417 94L418 95L417 94M148 95L149 96L148 95z"/>
<path style="fill:#7a6b6b; stroke:none;" d="M165 95L166 96L165 95z"/>
<path style="fill:#564141; stroke:none;" d="M217 95L218 96L217 95M93 96L94 97L93 96M165 96L166 97L165 96M187 96L188 97L187 96M232 96L233 97L232 96z"/>
<path style="fill:#a69a9a; stroke:none;" d="M374 96L375 97L374 96z"/>
<path style="fill:#7a6b6b; stroke:none;" d="M401 96L402 97L401 96z"/>
<path style="fill:#564141; stroke:none;" d="M496 96L497 97L496 96M523 96L524 97L523 96M381 97L382 98L381 97M419 97L420 98L419 97M507 97L508 98L507 97M339 98L340 99L339 98M355 98L356 99L355 98M374 98L375 99L374 98M400 98L401 99L400 98z"/>
<path style="fill:#7a6b6b; stroke:none;" d="M444 98L445 99L444 98z"/>
<path style="fill:#564141; stroke:none;" d="M190 99L191 100L190 99z"/>
<path style="fill:#7a6b6b; stroke:none;" d="M231 99L232 100L231 99z"/>
<path style="fill:#564141; stroke:none;" d="M292 99L293 100L292 99z"/>
<path style="fill:#7a6b6b; stroke:none;" d="M133 100L134 101L133 100z"/>
<path style="fill:#564141; stroke:none;" d="M134 100L135 101L134 100M192 100L193 101L192 100M269 100L270 101L269 100M420 100L421 101L420 100M497 100L498 101L497 100M130 101L131 102L130 101M338 101L339 102L338 101M399 101L400 102L399 101M445 101L446 102L445 101M506 101L507 102L506 101M127 102L128 103L127 102M149.333 102.667L149.667 103.333L149.333 102.667M215 102L216 103L215 102z"/>
<path style="fill:#7a6b6b; stroke:none;" d="M356 102L357 103L356 102z"/>
<path style="fill:#564141; stroke:none;" d="M484 102L485 103L484 102M125 103L126 104L125 103z"/>
<path style="fill:#a69a9a; stroke:none;" d="M142 103L143 104L142 103z"/>
<path style="fill:#564141; stroke:none;" d="M172 103L173 104L172 103z"/>
<path style="fill:#7a6b6b; stroke:none;" d="M200 103L201 104L200 103z"/>
<path style="fill:#a69a9a; stroke:none;" d="M274 103L275 104L274 103z"/>
<path style="fill:#564141; stroke:none;" d="M302 103L303 104L302 103z"/>
<path style="fill:#7a6b6b; stroke:none;" d="M521 103L522 104L521 103z"/>
<path style="fill:#564141; stroke:none;" d="M123 104L124 105L123 104M202 104L203 105L202 104M230.333 104.667L230.667 105.333L230.333 104.667M304 104L305 105L304 104M421.333 104.667L421.667 105.333L421.333 104.667M462 104L463 105L462 104M482 104L483 105L482 104M498 104L499 105L498 104z"/>
<path style="fill:#7a6b6b; stroke:none;" d="M204 105L205 106L204 105z"/>
<path style="fill:#564141; stroke:none;" d="M505 105L506 106L505 105M469 106L470 107L469 106M520 106L521 107L520 106M103 107L104 108L103 107M215 107L215 111L216 111L215 107M101 108L102 109L101 108M447 108L448 109L447 108M463 108L464 109L463 108M499 108L500 109L499 108M230.333 109.667L230.667 110.333L230.333 109.667M504 109L505 110L504 109M95 110L96 111L95 110z"/>
<path style="fill:#7a6b6b; stroke:none;" d="M179 110L180 111L179 110z"/>
<path style="fill:#564141; stroke:none;" d="M468 110L469 111L468 110M116 111L117 112L116 111z"/>
<path style="fill:#7a6b6b; stroke:none;" d="M136 111L137 112L136 111z"/>
<path style="fill:#564141; stroke:none;" d="M181 111L182 112L181 111M283 111L284 112L283 111M421.333 111.667L421.667 112.333L421.333 111.667M486 111L487 112L486 111M134 112L135 113L134 112M183 112L184 113L183 112M268 112L269 113L268 112M285 112L286 113L285 112z"/>
<path style="fill:#7a6b6b; stroke:none;" d="M464 112L465 113L464 112z"/>
<path style="fill:#564141; stroke:none;" d="M115 113L116 114L115 113M242 113L242 114L267 114L242 113M500 113L501 114L500 113M503 113L504 114L503 113z"/>
<path style="fill:#7a6b6b; stroke:none;" d="M132 114L133 115L132 114M188 114L189 115L188 114z"/>
<path style="fill:#a69a9a; stroke:none;" d="M290 114L291 115L290 114z"/>
<path style="fill:#564141; stroke:none;" d="M191 115L192 116L191 115M293 115L294 116L293 115z"/>
<path style="fill:#7a6b6b; stroke:none;" d="M314 115L315 116L314 115M399 115L400 116L399 115z"/>
<path style="fill:#564141; stroke:none;" d="M449 115L450 116L449 115M487 115L488 116L487 115M114 116L115 117L114 116M131 116L132 117L131 116M193 116L194 117L193 116z"/>
<path style="fill:#7a6b6b; stroke:none;" d="M215 116L216 117L215 116z"/>
<path style="fill:#564141; stroke:none;" d="M295 116L296 117L295 116M380 116L381 117L380 116M420 116L421 117L420 116M439 116L440 117L439 116M517 116L518 117L517 116z"/>
<path style="fill:#7a6b6b; stroke:none;" d="M465 117L466 118L465 117z"/>
<path style="fill:#564141; stroke:none;" d="M149 118L150 119L149 118M400 118L401 119L400 118M466 118L467 119L466 118z"/>
<path style="fill:#7a6b6b; stroke:none;" d="M114 119L115 120L114 119z"/>
<path style="fill:#564141; stroke:none;" d="M419 119L420 120L419 119M488 119L489 120L488 119M516 119L517 120L516 119z"/>
<path style="fill:#a69a9a; stroke:none;" d="M114.333 120.667L114.667 121.333L114.333 120.667z"/>
<path style="fill:#564141; stroke:none;" d="M196 120L197 121L196 120z"/>
<path style="fill:#7a6b6b; stroke:none;" d="M216 120L217 121L216 120M401 120L402 121L401 120z"/>
<path style="fill:#564141; stroke:none;" d="M478 120L479 121L478 120z"/>
<path style="fill:#7a6b6b; stroke:none;" d="M196 121L197 122L196 121z"/>
<path style="fill:#a69a9a; stroke:none;" d="M298 121L299 122L298 121z"/>
<path style="fill:#7a6b6b; stroke:none;" d="M114 122L115 123L114 122z"/>
<path style="fill:#564141; stroke:none;" d="M131 122L132 123L131 122M196 122L197 123L196 122M382 122L383 123L382 122M417 122L418 123L417 122z"/>
<path style="fill:#7a6b6b; stroke:none;" d="M451 122L452 123L451 122z"/>
<path style="fill:#564141; stroke:none;" d="M114 123L115 124L114 123M212 123L213 124L212 123M416 123L417 124L416 123M489 123L490 124L489 123M132 124L133 125L132 124M383 124L384 125L383 124z"/>
<path style="fill:#7a6b6b; stroke:none;" d="M405 124L406 125L405 124z"/>
<path style="fill:#564141; stroke:none;" d="M436 124L437 125L436 124M114 125L115 126L114 125M133 125L134 126L133 125M144 125L145 126L144 125M178 125L179 126L178 125z"/>
<path style="fill:#7a6b6b; stroke:none;" d="M242 125L243 126L242 125M257 125L258 126L257 125z"/>
<path style="fill:#564141; stroke:none;" d="M280 125L281 126L280 125z"/>
<path style="fill:#a69a9a; stroke:none;" d="M408 125L409 126L408 125z"/>
<path style="fill:#564141; stroke:none;" d="M412 125L413 126L412 125M452 125L453 126L452 125M135 126L136 127L135 126M142 126L143 127L142 126M182 126L183 127L182 126M192 126L193 127L192 126z"/>
<path style="fill:#7a6b6b; stroke:none;" d="M219 126L220 127L219 126z"/>
<path style="fill:#564141; stroke:none;" d="M246.667 126.333L247.333 126.667L246.667 126.333M251 126L252 127L251 126M264 126L265 127L264 126M284 126L285 127L284 126z"/>
<path style="fill:#7a6b6b; stroke:none;" d="M294 126L295 127L294 126z"/>
<path style="fill:#564141; stroke:none;" d="M171 127L172 128L171 127M211 127L212 128L211 127M273 127L274 128L273 127M313 127L314 128L313 127z"/>
<path style="fill:#7a6b6b; stroke:none;" d="M434 127L435 128L434 127z"/>
<path style="fill:#564141; stroke:none;" d="M490 127L491 128L490 127M115 128L116 129L115 128M476 128L477 129L476 128M210 129L211 130L210 129M265 129L266 130L265 129M312 129L313 130L312 129M513 129L514 130L513 129M117 131L118 132L117 131M208 131L209 132L208 131M272 131L273 132L272 131M430 131L431 132L430 131M491 131L492 132L491 131M148 132L149 133L148 132M171 132L172 133L171 132M454 132L455 133L454 132z"/>
<path style="fill:#7a6b6b; stroke:none;" d="M475 132L476 133L475 132z"/>
<path style="fill:#564141; stroke:none;" d="M512 132L513 133L512 132M226 133L227 134L226 133M272 133L273 134L272 133M391 133L392 134L391 133z"/>
<path style="fill:#7a6b6b; stroke:none;" d="M205 134L206 135L205 134z"/>
<path style="fill:#564141; stroke:none;" d="M265 134L266 135L265 134M307 134L308 135L307 134M320 134L321 135L320 134M121 135L122 136L121 135M151 135L152 136L151 135z"/>
<path style="fill:#7a6b6b; stroke:none;" d="M171 135L172 136L171 135z"/>
<path style="fill:#564141; stroke:none;" d="M264 135L265 136L264 135z"/>
<path style="fill:#7a6b6b; stroke:none;" d="M394 135L395 136L394 135z"/>
<path style="fill:#564141; stroke:none;" d="M455 135L456 136L455 135M474 135L475 136L474 135M492 135L493 136L492 135M152 136L153 137L152 136M173 136L174 137L173 136M201 136L202 137L201 136M232 136L233 137L232 136M275 136L276 137L275 136M422 136L423 137L422 136M493 136L494 137L493 136M140 137L141 138L140 137M154 137L155 138L154 137M176 137L177 138L176 137M198 137L199 138L198 137z"/>
<path style="fill:#7a6b6b; stroke:none;" d="M259 137L260 138L259 137M278 137L279 138L278 137z"/>
<path style="fill:#564141; stroke:none;" d="M399 137L400 138L399 137M63 138L63 139L73 139L63 138M130 138L131 139L130 138M135 138L136 139L135 138z"/>
<path style="fill:#7a6b6b; stroke:none;" d="M137 138L138 139L137 138M181 138L182 139L181 138z"/>
<path style="fill:#564141; stroke:none;" d="M184 138L185 139L184 138M191 138L192 139L191 138z"/>
<path style="fill:#7a6b6b; stroke:none;" d="M194 138L195 139L194 138z"/>
<path style="fill:#564141; stroke:none;" d="M240 138L241 139L240 138M243 138L243 139L250 139L243 138M252 138L253 139L252 138z"/>
<path style="fill:#7a6b6b; stroke:none;" d="M283 138L284 139L283 138z"/>
<path style="fill:#564141; stroke:none;" d="M286 138L287 139L286 138M293 138L294 139L293 138z"/>
<path style="fill:#7a6b6b; stroke:none;" d="M296 138L297 139L296 138M324 138L325 139L324 138z"/>
<path style="fill:#564141; stroke:none;" d="M325 138L325 139L334 139L325 138M361 138L361 139L371 139L361 138z"/>
<path style="fill:#7a6b6b; stroke:none;" d="M403 138L404 139L403 138z"/>
<path style="fill:#564141; stroke:none;" d="M405 138L406 139L405 138z"/>
</svg>
